<svg xmlns="http://www.w3.org/2000/svg" width="24" height="24" viewBox="0 0 24 24" fill="none" stroke="#000000" stroke-linecap="round" stroke-linejoin="round"><path d="M22 17.5H2" stroke="#000000" stroke-linecap="round" stroke-linejoin="round" stroke-width="2.25" /><path d="M22 21V16C22 14.1144 22 13.1716 21.4142 12.5858C20.8284 12 19.8856 12 18 12H6C4.11438 12 3.17157 12 2.58579 12.5858C2 13.1716 2 14.1144 2 16V21" stroke="#000000" stroke-linecap="round" stroke-linejoin="round" stroke-width="3" /><path d="M21 12V7.36057C21 6.66893 21 6.32311 20.8079 5.99653C20.6157 5.66995 20.342 5.50091 19.7944 5.16283C17.5869 3.79978 14.8993 3 12 3C9.10067 3 6.41314 3.79978 4.20558 5.16283C3.65804 5.50091 3.38427 5.66995 3.19213 5.99653C3 6.32311 3 6.66893 3 7.36057V12" stroke="#000000" stroke-linecap="round" stroke-width="3" stroke-linejoin="round" /></svg>
